<svg width="160" height="68" viewBox="0 0 160 68" fill="none" xmlns="http://www.w3.org/2000/svg">
<g filter="url(#filter0_d_8_23)">
<g filter="url(#filter1_d_8_23)">
<path d="M12.9122 9.10109L8.02406 24H4.08641L10.7644 6.0275H13.2702L12.9122 9.10109ZM16.9733 24L12.0728 9.10109L11.6778 6.0275H14.2083L20.9233 24H16.9733ZM16.7511 17.3097V20.2105H7.25875V17.3097H16.7511ZM28.1073 24H24.1944L24.2191 21.1116H28.1073C29.0784 21.1116 29.8972 20.8935 30.5638 20.4573C31.2303 20.013 31.7323 19.367 32.0697 18.5194C32.4153 17.6718 32.5881 16.6472 32.5881 15.4458V14.5694C32.5881 13.6477 32.4894 12.8371 32.2919 12.1377C32.1026 11.4382 31.8187 10.8498 31.4402 10.3725C31.0616 9.89521 30.5967 9.53724 30.0453 9.29859C29.494 9.05172 28.8603 8.92828 28.1444 8.92828H24.1203V6.0275H28.1444C29.3458 6.0275 30.4444 6.23323 31.4402 6.64469C32.4441 7.04792 33.3123 7.62807 34.0447 8.38516C34.7771 9.14224 35.3408 10.0474 35.7358 11.1008C36.139 12.1459 36.3406 13.3103 36.3406 14.5941V15.4458C36.3406 16.7213 36.139 17.8857 35.7358 18.9391C35.3408 19.9924 34.7771 20.8976 34.0447 21.6547C33.3205 22.4035 32.4523 22.9837 31.4402 23.3952C30.4362 23.7984 29.3253 24 28.1073 24ZM26.2928 6.0275V24H22.5897V6.0275H26.2928ZM19.8494 44.6064V51.7287C19.5696 52.0661 19.1376 52.4323 18.5533 52.8273C17.969 53.2141 17.216 53.5474 16.2944 53.8272C15.3727 54.107 14.2577 54.2469 12.9492 54.2469C11.7889 54.2469 10.7315 54.0576 9.77688 53.6791C8.82229 53.2923 7.99938 52.7286 7.30813 51.988C6.6251 51.2473 6.09844 50.3421 5.72813 49.2723C5.35781 48.1943 5.17266 46.9641 5.17266 45.5816V44.4583C5.17266 43.0758 5.34958 41.8455 5.70344 40.7675C6.06552 39.6895 6.57984 38.7802 7.24641 38.0395C7.91297 37.2989 8.70708 36.7352 9.62875 36.3484C10.5504 35.9617 11.5749 35.7683 12.7023 35.7683C14.2659 35.7683 15.5496 36.0234 16.5536 36.5336C17.5576 37.0356 18.3229 37.7351 18.8495 38.632C19.3844 39.5208 19.7136 40.5412 19.837 41.6933H16.245C16.1545 41.0843 15.9817 40.5535 15.7266 40.1009C15.4715 39.6483 15.1053 39.2945 14.628 39.0394C14.1589 38.7843 13.5499 38.6567 12.8011 38.6567C12.1839 38.6567 11.6326 38.7843 11.147 39.0394C10.6697 39.2862 10.2665 39.6524 9.93734 40.138C9.60818 40.6235 9.35719 41.2242 9.18438 41.9402C9.01156 42.6561 8.92516 43.4872 8.92516 44.4336V45.5816C8.92516 46.5197 9.01568 47.3508 9.19672 48.075C9.37776 48.7909 9.64521 49.3958 9.99906 49.8895C10.3611 50.3751 10.8055 50.7412 11.3322 50.9881C11.8589 51.235 12.4719 51.3584 13.1714 51.3584C13.7557 51.3584 14.2412 51.3091 14.628 51.2103C15.023 51.1116 15.3398 50.9922 15.5784 50.8523C15.8253 50.7042 16.0146 50.5643 16.1463 50.4327V47.248H12.7641V44.6064H19.8494ZM32.7609 36.0275H36.4517V47.9022C36.4517 49.2847 36.1555 50.4491 35.563 51.3955C34.9787 52.3418 34.1681 53.0536 33.1313 53.5309C32.1026 54.0082 30.9176 54.2469 29.5763 54.2469C28.2349 54.2469 27.0417 54.0082 25.9966 53.5309C24.9597 53.0536 24.145 52.3418 23.5525 51.3955C22.9682 50.4491 22.6761 49.2847 22.6761 47.9022V36.0275H26.3792V47.9022C26.3792 48.7086 26.5068 49.367 26.7619 49.8772C27.017 50.3874 27.3832 50.7618 27.8605 51.0005C28.346 51.2391 28.9179 51.3584 29.5763 51.3584C30.251 51.3584 30.823 51.2391 31.292 51.0005C31.7693 50.7618 32.1314 50.3874 32.3783 49.8772C32.6334 49.367 32.7609 48.7086 32.7609 47.9022V36.0275ZM46.5366 39.1011L41.6484 54H37.7108L44.3887 36.0275H46.8945L46.5366 39.1011ZM50.5977 54L45.6972 39.1011L45.3022 36.0275H47.8327L54.5477 54H50.5977ZM50.3755 47.3097V50.2105H40.8831V47.3097H50.3755ZM70.8414 36.0275V54H67.1383L59.9172 41.9525V54H56.2141V36.0275H59.9172L67.1506 48.0873V36.0275H70.8414ZM81.5928 39.1011L76.7047 54H72.767L79.445 36.0275H81.9508L81.5928 39.1011ZM85.6539 54L80.7534 39.1011L80.3584 36.0275H82.8889L89.6039 54H85.6539ZM85.4317 47.3097V50.2105H75.9394V47.3097H85.4317ZM98.3063 46.1123H93.6897L93.665 43.5695H97.5409C98.224 43.5695 98.7835 43.4831 99.2197 43.3103C99.6558 43.1293 99.9809 42.8701 100.195 42.5327C100.417 42.187 100.528 41.7673 100.528 41.2736C100.528 40.714 100.421 40.2614 100.207 39.9158C100.001 39.5702 99.6764 39.3192 99.232 39.1628C98.7959 39.0065 98.2322 38.9283 97.5409 38.9283H94.9734V54H91.2703V36.0275H97.5409C98.586 36.0275 99.5201 36.1262 100.343 36.3237C101.174 36.5212 101.878 36.8216 102.454 37.2248C103.03 37.6281 103.47 38.1383 103.775 38.7555C104.079 39.3644 104.231 40.0886 104.231 40.928C104.231 41.6686 104.063 42.3516 103.725 42.977C103.396 43.6024 102.873 44.1127 102.158 44.5077C101.45 44.9027 100.524 45.1207 99.3802 45.1619L98.3063 46.1123ZM98.1458 54H92.6775L94.1217 51.1116H98.1458C98.7959 51.1116 99.3267 51.0087 99.7381 50.803C100.15 50.589 100.454 50.301 100.652 49.9389C100.849 49.5768 100.948 49.1612 100.948 48.6922C100.948 48.1655 100.857 47.7088 100.676 47.322C100.503 46.9353 100.224 46.639 99.8369 46.4333C99.4501 46.2193 98.9399 46.1123 98.3063 46.1123H94.7389L94.7636 43.5695H99.2073L100.059 44.5694C101.154 44.5529 102.034 44.7463 102.701 45.1495C103.375 45.5445 103.865 46.0589 104.17 46.6925C104.482 47.3261 104.639 48.0051 104.639 48.7292C104.639 49.8813 104.388 50.8523 103.886 51.6423C103.384 52.4241 102.647 53.0125 101.676 53.4075C100.713 53.8025 99.5365 54 98.1458 54ZM114.723 39.1011L109.835 54H105.898L112.576 36.0275H115.081L114.723 39.1011ZM118.785 54L113.884 39.1011L113.489 36.0275H116.02L122.735 54H118.785ZM118.562 47.3097V50.2105H109.07V47.3097H118.562ZM124.401 36.0275H131.104C132.478 36.0275 133.659 36.2332 134.646 36.6447C135.642 37.0561 136.407 37.6651 136.942 38.4716C137.477 39.278 137.745 40.2696 137.745 41.4464C137.745 42.4092 137.58 43.2362 137.251 43.9275C136.93 44.6105 136.473 45.1824 135.881 45.6433C135.296 46.0959 134.609 46.458 133.819 46.7295L132.647 47.3467H126.82L126.796 44.4583H131.128C131.778 44.4583 132.317 44.3431 132.745 44.1127C133.173 43.8822 133.494 43.5613 133.708 43.1498C133.93 42.7384 134.041 42.2611 134.041 41.718C134.041 41.1419 133.934 40.6441 133.72 40.2244C133.507 39.8047 133.181 39.4837 132.745 39.2616C132.309 39.0394 131.762 38.9283 131.104 38.9283H128.104V54H124.401V36.0275ZM134.449 54L130.351 45.9889L134.264 45.9642L138.411 53.8272V54H134.449ZM147.903 39.1011L143.015 54H139.078L145.756 36.0275H148.261L147.903 39.1011ZM151.965 54L147.064 39.1011L146.669 36.0275H149.2L155.915 54H151.965ZM151.742 47.3097V50.2105H142.25V47.3097H151.742Z" fill="white" shape-rendering="crispEdges"/>
<path d="M12.9122 9.10109L13.1916 9.19275L13.2008 9.16457L13.2042 9.13511L12.9122 9.10109ZM8.02406 24V24.294H8.23704L8.30343 24.0917L8.02406 24ZM4.08641 24L3.8108 23.8976L3.6635 24.294H4.08641V24ZM10.7644 6.0275V5.73348H10.56L10.4888 5.92509L10.7644 6.0275ZM13.2702 6.0275L13.5622 6.06151L13.6004 5.73348H13.2702V6.0275ZM16.9733 24L16.694 24.0919L16.7605 24.294H16.9733V24ZM12.0728 9.10109L11.7812 9.13857L11.7848 9.16635L11.7935 9.19296L12.0728 9.10109ZM11.6778 6.0275V5.73348H11.3436L11.3862 6.06498L11.6778 6.0275ZM14.2083 6.0275L14.4837 5.92459L14.4123 5.73348H14.2083V6.0275ZM20.9233 24V24.294H21.347L21.1987 23.8971L20.9233 24ZM16.7511 17.3097H17.0451V17.0157H16.7511V17.3097ZM16.7511 20.2105V20.5045H17.0451V20.2105H16.7511ZM7.25875 20.2105H6.96473V20.5045H7.25875V20.2105ZM7.25875 17.3097V17.0157H6.96473V17.3097H7.25875ZM12.6328 9.00944L7.74469 23.9083L8.30343 24.0917L13.1916 9.19275L12.6328 9.00944ZM8.02406 23.706H4.08641V24.294H8.02406V23.706ZM4.36202 24.1024L11.04 6.12991L10.4888 5.92509L3.8108 23.8976L4.36202 24.1024ZM10.7644 6.32152H13.2702V5.73348H10.7644V6.32152ZM12.9781 5.99349L12.6201 9.06708L13.2042 9.13511L13.5622 6.06151L12.9781 5.99349ZM17.2526 23.9081L12.3521 9.00923L11.7935 9.19296L16.694 24.0919L17.2526 23.9081ZM12.3644 9.06362L11.9694 5.99002L11.3862 6.06498L11.7812 9.13857L12.3644 9.06362ZM11.6778 6.32152H14.2083V5.73348H11.6778V6.32152ZM13.9329 6.1304L20.6479 24.1029L21.1987 23.8971L14.4837 5.92459L13.9329 6.1304ZM20.9233 23.706H16.9733V24.294H20.9233V23.706ZM16.4571 17.3097V20.2105H17.0451V17.3097H16.4571ZM16.7511 19.9164H7.25875V20.5045H16.7511V19.9164ZM7.55277 20.2105V17.3097H6.96473V20.2105H7.55277ZM7.25875 17.6037H16.7511V17.0157H7.25875V17.6037ZM24.1944 24L23.9004 23.9975L23.8978 24.294H24.1944V24ZM24.2191 21.1116V20.8175H23.9275L23.9251 21.109L24.2191 21.1116ZM30.5638 20.4573L30.7247 20.7034L30.7268 20.702L30.5638 20.4573ZM32.0697 18.5194L31.7974 18.4084L31.7965 18.4106L32.0697 18.5194ZM32.2919 12.1377L32.008 12.2145L32.0089 12.2175L32.2919 12.1377ZM30.0453 9.29859L29.9251 9.56696L29.9285 9.56842L30.0453 9.29859ZM24.1203 8.92828H23.8263V9.2223H24.1203V8.92828ZM24.1203 6.0275V5.73348H23.8263V6.0275H24.1203ZM31.4402 6.64469L31.3279 6.91643L31.3306 6.91752L31.4402 6.64469ZM34.0447 8.38516L34.256 8.18073L34.0447 8.38516ZM35.7358 11.1008L35.4605 11.204L35.4615 11.2066L35.7358 11.1008ZM35.7358 18.9391L35.4612 18.8339L35.4605 18.8358L35.7358 18.9391ZM34.0447 21.6547L33.8334 21.4503L33.8333 21.4503L34.0447 21.6547ZM31.4402 23.3952L31.5497 23.668L31.5509 23.6675L31.4402 23.3952ZM26.2928 6.0275H26.5868V5.73348H26.2928V6.0275ZM26.2928 24V24.294H26.5868V24H26.2928ZM22.5897 24H22.2957V24.294H22.5897V24ZM22.5897 6.0275V5.73348H22.2957V6.0275H22.5897ZM28.1073 23.706H24.1944V24.294H28.1073V23.706ZM24.4884 24.0025L24.5131 21.1141L23.9251 21.109L23.9004 23.9975L24.4884 24.0025ZM24.2191 21.4056H28.1073V20.8175H24.2191V21.4056ZM28.1073 21.4056C29.1229 21.4056 30.0007 21.1771 30.7247 20.7034L30.4028 20.2113C29.7936 20.6099 29.0338 20.8175 28.1073 20.8175V21.4056ZM30.7268 20.702C31.4497 20.2201 31.9866 19.5232 32.3429 18.6281L31.7965 18.4106C31.478 19.2108 31.0109 19.8059 30.4007 20.2127L30.7268 20.702ZM32.3419 18.6304C32.7057 17.7384 32.8821 16.674 32.8821 15.4458H32.2941C32.2941 16.6205 32.125 17.6051 31.7974 18.4084L32.3419 18.6304ZM32.8821 15.4458V14.5694H32.2941V15.4458H32.8821ZM32.8821 14.5694C32.8821 13.6276 32.7813 12.7891 32.5748 12.0578L32.0089 12.2175C32.1974 12.8852 32.2941 13.6679 32.2941 14.5694H32.8821ZM32.5757 12.0609C32.3779 11.33 32.0781 10.7037 31.6705 10.1898L31.2098 10.5552C31.5593 10.9958 31.8273 11.5464 32.0081 12.2145L32.5757 12.0609ZM31.6705 10.1898C31.2623 9.6751 30.7586 9.28693 30.1621 9.02876L29.9285 9.56842C30.4348 9.78755 30.8609 10.1153 31.2098 10.5552L31.6705 10.1898ZM30.1655 9.03025C29.57 8.76361 28.8942 8.63426 28.1444 8.63426V9.2223C28.8265 9.2223 29.4179 9.33983 29.9252 9.56694L30.1655 9.03025ZM28.1444 8.63426H24.1203V9.2223H28.1444V8.63426ZM24.4143 8.92828V6.0275H23.8263V8.92828H24.4143ZM24.1203 6.32152H28.1444V5.73348H24.1203V6.32152ZM28.1444 6.32152C29.3117 6.32152 30.3716 6.52128 31.3279 6.91642L31.5524 6.37295C30.5172 5.94518 29.3799 5.73348 28.1444 5.73348V6.32152ZM31.3306 6.91752C32.2973 7.30578 33.1305 7.86302 33.8334 8.58959L34.256 8.18073C33.4941 7.39313 32.591 6.79005 31.5497 6.37185L31.3306 6.91752ZM33.8334 8.58959C34.5359 9.31575 35.0787 10.1858 35.4605 11.204L36.0111 10.9975C35.6029 9.90905 35.0183 8.96873 34.256 8.18073L33.8334 8.58959ZM35.4615 11.2066C35.8499 12.2134 36.0466 13.3413 36.0466 14.5941H36.6346C36.6346 13.2793 36.4281 12.0784 36.0101 10.9949L35.4615 11.2066ZM36.0466 14.5941V15.4458H36.6346V14.5941H36.0466ZM36.0466 15.4458C36.0466 16.69 35.85 17.8183 35.4612 18.8339L36.0104 19.0442C36.428 17.9532 36.6346 16.7526 36.6346 15.4458H36.0466ZM35.4605 18.8358C35.0787 19.854 34.5359 20.7241 33.8334 21.4503L34.256 21.8591C35.0183 21.0711 35.6029 20.1308 36.0111 19.0423L35.4605 18.8358ZM33.8333 21.4503C33.139 22.1683 32.3056 22.726 31.3294 23.1228L31.5509 23.6675C32.5991 23.2414 33.502 22.6388 34.256 21.8591L33.8333 21.4503ZM31.3306 23.1223C30.3656 23.5099 29.2924 23.706 28.1073 23.706V24.294C29.3581 24.294 30.5068 24.0869 31.5497 23.668L31.3306 23.1223ZM25.9988 6.0275V24H26.5868V6.0275H25.9988ZM26.2928 23.706H22.5897V24.294H26.2928V23.706ZM22.8837 24V6.0275H22.2957V24H22.8837ZM22.5897 6.32152H26.2928V5.73348H22.5897V6.32152ZM19.8494 44.6064H20.1434V44.3124H19.8494V44.6064ZM19.8494 51.7287L20.0757 51.9164L20.1434 51.8348V51.7287H19.8494ZM18.5533 52.8273L18.7156 53.0725L18.718 53.0709L18.5533 52.8273ZM16.2944 53.8272L16.209 53.5458L16.2944 53.8272ZM9.77688 53.6791L9.66646 53.9516L9.66849 53.9524L9.77688 53.6791ZM7.30813 51.988L7.09198 52.1873L7.09318 52.1886L7.30813 51.988ZM5.72813 49.2723L5.45005 49.3679L5.45028 49.3685L5.72813 49.2723ZM5.70344 40.7675L5.42471 40.6739L5.42408 40.6758L5.70344 40.7675ZM16.5536 36.5336L16.4204 36.7957L16.4221 36.7966L16.5536 36.5336ZM18.8495 38.632L18.596 38.7809L18.5976 38.7836L18.8495 38.632ZM19.837 41.6933V41.9873H20.1642L20.1294 41.662L19.837 41.6933ZM16.245 41.6933L15.9542 41.7365L15.9915 41.9873H16.245V41.6933ZM14.628 39.0394L14.4875 39.2977L14.4894 39.2987L14.628 39.0394ZM11.147 39.0394L11.2821 39.3005L11.2838 39.2997L11.147 39.0394ZM9.19672 48.075L8.91148 48.1463L8.91167 48.1471L9.19672 48.075ZM9.99906 49.8895L9.76004 50.0608L9.76337 50.0653L9.99906 49.8895ZM14.628 51.2103L14.5567 50.9251L14.5552 50.9254L14.628 51.2103ZM15.5784 50.8523L15.7271 51.106L15.7297 51.1045L15.5784 50.8523ZM16.1463 50.4327L16.3542 50.6406L16.4403 50.5544V50.4327H16.1463ZM16.1463 47.248H16.4403V46.9539H16.1463V47.248ZM12.7641 47.248H12.47V47.542H12.7641V47.248ZM12.7641 44.6064V44.3124H12.47V44.6064H12.7641ZM19.5554 44.6064V51.7287H20.1434V44.6064H19.5554ZM19.6231 51.5411C19.3685 51.848 18.962 52.1961 18.3886 52.5838L18.718 53.0709C19.3131 52.6686 19.7707 52.2843 20.0757 51.9164L19.6231 51.5411ZM18.391 52.5822C17.8375 52.9486 17.1128 53.2715 16.209 53.5458L16.3798 54.1085C17.3193 53.8233 18.1006 53.4796 18.7156 53.0725L18.391 52.5822ZM16.209 53.5458C15.3229 53.8148 14.2383 53.9529 12.9492 53.9529V54.5409C14.277 54.5409 15.4225 54.3991 16.3798 54.1085L16.209 53.5458ZM12.9492 53.9529C11.8212 53.9529 10.8012 53.7689 9.88526 53.4057L9.66849 53.9524C10.6618 54.3463 11.7566 54.5409 12.9492 54.5409V53.9529ZM9.88729 53.4066C8.97168 53.0356 8.18462 52.4962 7.52307 51.7874L7.09318 52.1886C7.81413 52.961 8.6729 53.549 9.66646 53.9516L9.88729 53.4066ZM7.52426 51.7886C6.8719 51.0813 6.36468 50.2124 6.00597 49.1762L5.45028 49.3685C5.8322 50.4718 6.37831 51.4134 7.09199 52.1873L7.52426 51.7886ZM6.0062 49.1768C5.64842 48.1353 5.46668 46.9382 5.46668 45.5816H4.87864C4.87864 46.9899 5.06721 48.2534 5.45005 49.3679L6.0062 49.1768ZM5.46668 45.5816V44.4583H4.87864V45.5816H5.46668ZM5.46668 44.4583C5.46668 43.1004 5.64051 41.902 5.98279 40.8592L5.42408 40.6758C5.05866 41.7891 4.87864 43.0512 4.87864 44.4583H5.46668ZM5.98216 40.8611C6.33324 39.8158 6.82882 38.943 7.46495 38.2362L7.02786 37.8428C6.33086 38.6173 5.7978 39.5631 5.42472 40.6739L5.98216 40.8611ZM7.46495 38.2362C8.10241 37.5279 8.86071 36.9896 9.74252 36.6196L9.51498 36.0773C8.55346 36.4808 7.72353 37.0699 7.02786 37.8428L7.46495 38.2362ZM9.74252 36.6196C10.6238 36.2497 11.609 36.0623 12.7023 36.0623V35.4743C11.5409 35.4743 10.477 35.6736 9.51498 36.0773L9.74252 36.6196ZM12.7023 36.0623C14.2366 36.0623 15.4706 36.313 16.4204 36.7957L16.6868 36.2715C15.6287 35.7338 14.2952 35.4743 12.7023 35.4743V36.0623ZM16.4221 36.7966C17.3794 37.2752 18.1004 37.9369 18.596 38.7809L19.1031 38.4832C18.5453 37.5332 17.7357 36.7959 16.6851 36.2706L16.4221 36.7966ZM18.5976 38.7836C19.108 39.6316 19.4253 40.6101 19.5447 41.7246L20.1294 41.662C20.0019 40.4723 19.6609 39.4099 19.1014 38.4804L18.5976 38.7836ZM19.837 41.3993H16.245V41.9873H19.837V41.3993ZM16.5358 41.6501C16.441 41.012 16.2584 40.4457 15.9827 39.9566L15.4704 40.2453C15.7049 40.6614 15.868 41.1567 15.9542 41.7365L16.5358 41.6501ZM15.9827 39.9566C15.699 39.4532 15.291 39.0604 14.7666 38.7801L14.4894 39.2987C14.9195 39.5286 15.244 39.8435 15.4704 40.2453L15.9827 39.9566ZM14.7684 38.7811C14.2424 38.495 13.5804 38.3627 12.8011 38.3627V38.9507C13.5195 38.9507 14.0754 39.0735 14.4875 39.2977L14.7684 38.7811ZM12.8011 38.3627C12.1423 38.3627 11.543 38.4992 11.0103 38.7791L11.2838 39.2997C11.7221 39.0694 12.2255 38.9507 12.8011 38.9507V38.3627ZM11.012 38.7782C10.4872 39.0496 10.0481 39.4507 9.69398 39.973L10.1807 40.303C10.4849 39.8542 10.8523 39.5229 11.2821 39.3005L11.012 38.7782ZM9.69398 39.973C9.34069 40.4941 9.07762 41.1294 8.89856 41.8712L9.47019 42.0091C9.63675 41.3191 9.87567 40.7529 10.1807 40.303L9.69398 39.973ZM8.89856 41.8712C8.71901 42.615 8.63114 43.4702 8.63114 44.4336H9.21918C9.21918 43.5043 9.30412 42.6972 9.47019 42.0091L8.89856 41.8712ZM8.63114 44.4336V45.5816H9.21918V44.4336H8.63114ZM8.63114 45.5816C8.63114 46.5379 8.72334 47.3938 8.91148 48.1463L9.48196 48.0037C9.30801 47.3079 9.21918 46.5015 9.21918 45.5816H8.63114ZM8.91167 48.1471C9.09984 48.8912 9.38073 49.5315 9.76008 50.0608L10.238 49.7183C9.90969 49.2601 9.65568 48.6907 9.48177 48.0029L8.91167 48.1471ZM9.76337 50.0653C10.1532 50.588 10.635 50.9861 11.2074 51.2543L11.457 50.7219C10.976 50.4964 10.5691 50.1621 10.2348 49.7138L9.76337 50.0653ZM11.2074 51.2543C11.7802 51.5229 12.4374 51.6525 13.1714 51.6525V51.0644C12.5065 51.0644 11.9375 50.9471 11.457 50.7219L11.2074 51.2543ZM13.1714 51.6525C13.77 51.6525 14.282 51.6021 14.7007 51.4952L14.5552 50.9254C14.2004 51.016 13.7414 51.0644 13.1714 51.0644V51.6525ZM14.6993 51.4956C15.1099 51.3929 15.4559 51.265 15.7271 51.106L15.4297 50.5987C15.2237 50.7195 14.936 50.8302 14.5567 50.9251L14.6993 51.4956ZM15.7297 51.1045C15.9873 50.9499 16.1989 50.7958 16.3542 50.6406L15.9383 50.2248C15.8303 50.3328 15.6633 50.4585 15.4272 50.6002L15.7297 51.1045ZM16.4403 50.4327V47.248H15.8522V50.4327H16.4403ZM16.1463 46.9539H12.7641V47.542H16.1463V46.9539ZM13.0581 47.248V44.6064H12.47V47.248H13.0581ZM12.7641 44.9004H19.8494V44.3124H12.7641V44.9004ZM32.7609 36.0275V35.7335H32.4669V36.0275H32.7609ZM36.4517 36.0275H36.7457V35.7335H36.4517V36.0275ZM35.563 51.3955L35.3138 51.2394L35.3128 51.241L35.563 51.3955ZM33.1313 53.5309L33.0083 53.2639L33.0075 53.2642L33.1313 53.5309ZM25.9966 53.5309L25.8736 53.798L25.8744 53.7984L25.9966 53.5309ZM23.5525 51.3955L23.3023 51.5499L23.3033 51.5515L23.5525 51.3955ZM22.6761 36.0275V35.7335H22.3821V36.0275H22.6761ZM26.3792 36.0275H26.6732V35.7335H26.3792V36.0275ZM27.8605 51.0005L27.729 51.2635L27.7308 51.2643L27.8605 51.0005ZM31.292 51.0005L31.1605 50.7375L31.1587 50.7384L31.292 51.0005ZM32.3783 49.8772L32.1153 49.7457L32.1136 49.7491L32.3783 49.8772ZM32.7609 36.3215H36.4517V35.7335H32.7609V36.3215ZM36.1577 36.0275V47.9022H36.7457V36.0275H36.1577ZM36.1577 47.9022C36.1577 49.2426 35.8707 50.3499 35.3138 51.2394L35.8122 51.5515C36.4402 50.5484 36.7457 49.3267 36.7457 47.9022H36.1577ZM35.3128 51.241C34.7598 52.1368 33.9941 52.8101 33.0083 53.2639L33.2542 53.798C34.3422 53.2972 35.1976 52.5469 35.8132 51.5499L35.3128 51.241ZM33.0075 53.2642C32.0241 53.7205 30.8826 53.9529 29.5763 53.9529V54.5409C30.9526 54.5409 32.1811 54.2959 33.255 53.7976L33.0075 53.2642ZM29.5763 53.9529C28.27 53.9529 27.1196 53.7206 26.1187 53.2635L25.8744 53.7984C26.9638 54.2959 28.1998 54.5409 29.5763 54.5409V53.9529ZM26.1195 53.2639C25.1334 52.8099 24.3631 52.1361 23.8017 51.2394L23.3033 51.5515C23.9269 52.5475 24.786 53.2974 25.8736 53.798L26.1195 53.2639ZM23.8027 51.241C23.2533 50.3512 22.9701 49.2433 22.9701 47.9022H22.3821C22.3821 49.326 22.6832 50.5471 23.3023 51.5499L23.8027 51.241ZM22.9701 47.9022V36.0275H22.3821V47.9022H22.9701ZM22.6761 36.3215H26.3792V35.7335H22.6761V36.3215ZM26.0852 36.0275V47.9022H26.6732V36.0275H26.0852ZM26.0852 47.9022C26.0852 48.7366 26.2167 49.4443 26.4989 50.0087L27.0249 49.7457C26.7968 49.2896 26.6732 48.6807 26.6732 47.9022H26.0852ZM26.4989 50.0087C26.7804 50.5716 27.1908 50.9943 27.729 51.2634L27.992 50.7375C27.5756 50.5293 27.2536 50.2032 27.0249 49.7457L26.4989 50.0087ZM27.7308 51.2643C28.2645 51.5267 28.8825 51.6525 29.5763 51.6525V51.0644C28.9533 51.0644 28.4275 50.9516 27.9902 50.7366L27.7308 51.2643ZM29.5763 51.6525C30.2847 51.6525 30.905 51.5273 31.4254 51.2625L31.1587 50.7384C30.7409 50.951 30.2174 51.0644 29.5763 51.0644V51.6525ZM31.4235 51.2634C31.9626 50.9939 32.3697 50.57 32.6429 50.0053L32.1136 49.7491C31.8931 50.2048 31.576 50.5298 31.1605 50.7375L31.4235 51.2634ZM32.6413 50.0087C32.9234 49.4443 33.055 48.7366 33.055 47.9022H32.4669C32.4669 48.6807 32.3433 49.2896 32.1153 49.7457L32.6413 50.0087ZM33.055 47.9022V36.0275H32.4669V47.9022H33.055ZM46.5366 39.1011L46.8159 39.1927L46.8252 39.1646L46.8286 39.1351L46.5366 39.1011ZM41.6484 54V54.294H41.8614L41.9278 54.0917L41.6484 54ZM37.7108 54L37.4352 53.8976L37.2879 54.294H37.7108V54ZM44.3887 36.0275V35.7335H44.1843L44.1131 35.9251L44.3887 36.0275ZM46.8945 36.0275L47.1866 36.0615L47.2248 35.7335H46.8945V36.0275ZM50.5977 54L50.3184 54.0919L50.3848 54.294H50.5977V54ZM45.6972 39.1011L45.4056 39.1386L45.4091 39.1664L45.4179 39.193L45.6972 39.1011ZM45.3022 36.0275V35.7335H44.968L45.0106 36.065L45.3022 36.0275ZM47.8327 36.0275L48.1081 35.9246L48.0367 35.7335H47.8327V36.0275ZM54.5477 54V54.294H54.9714L54.8231 53.8971L54.5477 54ZM50.3755 47.3097H50.6695V47.0157H50.3755V47.3097ZM50.3755 50.2105V50.5045H50.6695V50.2105H50.3755ZM40.8831 50.2105H40.5891V50.5045H40.8831V50.2105ZM40.8831 47.3097V47.0157H40.5891V47.3097H40.8831ZM46.2572 39.0094L41.3691 53.9083L41.9278 54.0917L46.8159 39.1927L46.2572 39.0094ZM41.6484 53.706H37.7108V54.294H41.6484V53.706ZM37.9864 54.1024L44.6644 36.1299L44.1131 35.9251L37.4352 53.8976L37.9864 54.1024ZM44.3887 36.3215H46.8945V35.7335H44.3887V36.3215ZM46.6025 35.9935L46.2445 39.0671L46.8286 39.1351L47.1866 36.0615L46.6025 35.9935ZM50.877 53.9081L45.9765 39.0092L45.4179 39.193L50.3184 54.0919L50.877 53.9081ZM45.9888 39.0636L45.5938 35.99L45.0106 36.065L45.4056 39.1386L45.9888 39.0636ZM45.3022 36.3215H47.8327V35.7335H45.3022V36.3215ZM47.5572 36.1304L54.2722 54.1029L54.8231 53.8971L48.1081 35.9246L47.5572 36.1304ZM54.5477 53.706H50.5977V54.294H54.5477V53.706ZM50.0814 47.3097V50.2105H50.6695V47.3097H50.0814ZM50.3755 49.9164H40.8831V50.5045H50.3755V49.9164ZM41.1771 50.2105V47.3097H40.5891V50.2105H41.1771ZM40.8831 47.6037H50.3755V47.0157H40.8831V47.6037ZM70.8414 36.0275H71.1354V35.7335H70.8414V36.0275ZM70.8414 54V54.294H71.1354V54H70.8414ZM67.1383 54L66.8861 54.1512L66.9717 54.294H67.1383V54ZM59.9172 41.9525L60.1694 41.8013L59.6232 40.8901V41.9525H59.9172ZM59.9172 54V54.294H60.2112V54H59.9172ZM56.2141 54H55.92V54.294H56.2141V54ZM56.2141 36.0275V35.7335H55.92V36.0275H56.2141ZM59.9172 36.0275L60.1693 35.8763L60.0837 35.7335H59.9172V36.0275ZM67.1506 48.0873L66.8985 48.2386L67.4446 49.1492V48.0873H67.1506ZM67.1506 36.0275V35.7335H66.8566V36.0275H67.1506ZM70.5474 36.0275V54H71.1354V36.0275H70.5474ZM70.8414 53.706H67.1383V54.294H70.8414V53.706ZM67.3905 53.8488L60.1694 41.8013L59.665 42.1037L66.8861 54.1512L67.3905 53.8488ZM59.6232 41.9525V54H60.2112V41.9525H59.6232ZM59.9172 53.706H56.2141V54.294H59.9172V53.706ZM56.5081 54V36.0275H55.92V54H56.5081ZM56.2141 36.3215H59.9172V35.7335H56.2141V36.3215ZM59.665 36.1787L66.8985 48.2386L67.4028 47.9361L60.1693 35.8763L59.665 36.1787ZM67.4446 48.0873V36.0275H66.8566V48.0873H67.4446ZM67.1506 36.3215H70.8414V35.7335H67.1506V36.3215ZM81.5928 39.1011L81.8722 39.1927L81.8814 39.1646L81.8849 39.1351L81.5928 39.1011ZM76.7047 54V54.294H76.9177L76.9841 54.0917L76.7047 54ZM72.767 54L72.4914 53.8976L72.3441 54.294H72.767V54ZM79.445 36.0275V35.7335H79.2406L79.1694 35.9251L79.445 36.0275ZM81.9508 36.0275L82.2428 36.0615L82.281 35.7335H81.9508V36.0275ZM85.6539 54L85.3746 54.0919L85.4411 54.294H85.6539V54ZM80.7534 39.1011L80.4618 39.1386L80.4654 39.1664L80.4741 39.193L80.7534 39.1011ZM80.3584 36.0275V35.7335H80.0242L80.0668 36.065L80.3584 36.0275ZM82.8889 36.0275L83.1643 35.9246L83.0929 35.7335H82.8889V36.0275ZM89.6039 54V54.294H90.0276L89.8793 53.8971L89.6039 54ZM85.4317 47.3097H85.7257V47.0157H85.4317V47.3097ZM85.4317 50.2105V50.5045H85.7257V50.2105H85.4317ZM75.9394 50.2105H75.6454V50.5045H75.9394V50.2105ZM75.9394 47.3097V47.0157H75.6454V47.3097H75.9394ZM81.3134 39.0094L76.4253 53.9083L76.9841 54.0917L81.8722 39.1927L81.3134 39.0094ZM76.7047 53.706H72.767V54.294H76.7047V53.706ZM73.0426 54.1024L79.7206 36.1299L79.1694 35.9251L72.4914 53.8976L73.0426 54.1024ZM79.445 36.3215H81.9508V35.7335H79.445V36.3215ZM81.6587 35.9935L81.3008 39.0671L81.8849 39.1351L82.2428 36.0615L81.6587 35.9935ZM85.9332 53.9081L81.0327 39.0092L80.4741 39.193L85.3746 54.0919L85.9332 53.9081ZM81.0451 39.0636L80.6501 35.99L80.0668 36.065L80.4618 39.1386L81.0451 39.0636ZM80.3584 36.3215H82.8889V35.7335H80.3584V36.3215ZM82.6135 36.1304L89.3285 54.1029L89.8793 53.8971L83.1643 35.9246L82.6135 36.1304ZM89.6039 53.706H85.6539V54.294H89.6039V53.706ZM85.1377 47.3097V50.2105H85.7257V47.3097H85.1377ZM85.4317 49.9164H75.9394V50.5045H85.4317V49.9164ZM76.2334 50.2105V47.3097H75.6454V50.2105H76.2334ZM75.9394 47.6037H85.4317V47.0157H75.9394V47.6037ZM98.3063 46.1123V46.4064H98.4177L98.5011 46.3325L98.3063 46.1123ZM93.6897 46.1123L93.3957 46.1152L93.3985 46.4064H93.6897V46.1123ZM93.665 43.5695V43.2755H93.3681L93.371 43.5724L93.665 43.5695ZM99.2197 43.3103L99.328 43.5837L99.3324 43.5819L99.2197 43.3103ZM100.195 42.5327L99.9475 42.3737L99.9465 42.3752L100.195 42.5327ZM100.207 39.9158L99.9545 40.0662L99.9572 40.0705L100.207 39.9158ZM99.232 39.1628L99.1328 39.4396L99.1344 39.4402L99.232 39.1628ZM94.9734 38.9283V38.6343H94.6794V38.9283H94.9734ZM94.9734 54V54.294H95.2675V54H94.9734ZM91.2703 54H90.9763V54.294H91.2703V54ZM91.2703 36.0275V35.7335H90.9763V36.0275H91.2703ZM100.343 36.3237L100.274 36.6097L100.275 36.6098L100.343 36.3237ZM102.454 37.2248L102.285 37.4657L102.454 37.2248ZM103.775 38.7555L103.511 38.8856L103.512 38.887L103.775 38.7555ZM103.725 42.977L103.466 42.8374L103.465 42.8401L103.725 42.977ZM102.158 44.5077L102.015 44.2502L102.014 44.2509L102.158 44.5077ZM99.3802 45.1619L99.3696 44.868L99.2642 44.8718L99.1853 44.9417L99.3802 45.1619ZM92.6775 54L92.4145 53.8685L92.2018 54.294H92.6775V54ZM94.1217 51.1116V50.8175H93.94L93.8587 50.9801L94.1217 51.1116ZM99.7381 50.803L99.8696 51.066L99.8738 51.0638L99.7381 50.803ZM100.676 47.322L100.408 47.442L100.41 47.4467L100.676 47.322ZM99.8369 46.4333L99.6945 46.6906L99.6988 46.6929L99.8369 46.4333ZM94.7389 46.1123L94.4449 46.1095L94.442 46.4064H94.7389V46.1123ZM94.7636 43.5695V43.2755H94.4724L94.4696 43.5667L94.7636 43.5695ZM99.2073 43.5695L99.4312 43.3789L99.3431 43.2755H99.2073V43.5695ZM100.059 44.5694L99.8352 44.76L99.925 44.8654L100.063 44.8634L100.059 44.5694ZM102.701 45.1495L102.548 45.4011L102.552 45.4033L102.701 45.1495ZM104.17 46.6925L103.905 46.8199L103.906 46.8226L104.17 46.6925ZM103.886 51.6423L104.133 51.8012L104.134 51.8L103.886 51.6423ZM101.676 53.4075L101.565 53.1352L101.564 53.1355L101.676 53.4075ZM98.3063 45.8183H93.6897V46.4064H98.3063V45.8183ZM93.9837 46.1095L93.959 43.5667L93.371 43.5724L93.3957 46.1152L93.9837 46.1095ZM93.665 43.8636H97.5409V43.2755H93.665V43.8636ZM97.5409 43.8636C98.2456 43.8636 98.8455 43.7749 99.328 43.5837L99.1114 43.037C98.7216 43.1914 98.2023 43.2755 97.5409 43.2755V43.8636ZM99.3324 43.5819C99.814 43.382 100.191 43.0873 100.443 42.6901L99.9465 42.3752C99.7705 42.6528 99.4977 42.8766 99.107 43.0388L99.3324 43.5819ZM100.442 42.6917C100.701 42.2898 100.822 41.8122 100.822 41.2736H100.234C100.234 41.7225 100.134 42.0843 99.9475 42.3737L100.442 42.6917ZM100.822 41.2736C100.822 40.6791 100.709 40.1675 100.457 39.761L99.9572 40.0705C100.133 40.3553 100.234 40.7489 100.234 41.2736H100.822ZM100.46 39.7654C100.213 39.3508 99.8273 39.0606 99.3296 38.8855L99.1344 39.4402C99.5255 39.5778 99.7899 39.7896 99.9545 40.0662L100.46 39.7654ZM99.3313 38.886C98.8517 38.7141 98.251 38.6343 97.5409 38.6343V39.2223C98.2134 39.2223 98.7401 39.2988 99.1328 39.4396L99.3313 38.886ZM97.5409 38.6343H94.9734V39.2223H97.5409V38.6343ZM94.6794 38.9283V54H95.2675V38.9283H94.6794ZM94.9734 53.706H91.2703V54.294H94.9734V53.706ZM91.5643 54V36.0275H90.9763V54H91.5643ZM91.2703 36.3215H97.5409V35.7335H91.2703V36.3215ZM97.5409 36.3215C98.5681 36.3215 99.4784 36.4186 100.274 36.6096L100.412 36.0378C99.5617 35.8339 98.604 35.7335 97.5409 35.7335V36.3215ZM100.275 36.6098C101.078 36.8005 101.745 37.0878 102.285 37.4657L102.622 36.984C102.01 36.5554 101.271 36.242 100.411 36.0377L100.275 36.6098ZM102.285 37.4657C102.822 37.8412 103.229 38.3137 103.511 38.8856L104.038 38.6254C103.711 37.9629 103.238 37.4149 102.622 36.984L102.285 37.4657ZM103.512 38.887C103.791 39.4467 103.937 40.1238 103.937 40.928H104.525C104.525 40.0534 104.367 39.2822 104.038 38.624L103.512 38.887ZM103.937 40.928C103.937 41.622 103.78 42.2567 103.466 42.8374L103.984 43.1166C104.345 42.4465 104.525 41.7152 104.525 40.928H103.937ZM103.465 42.8401C103.167 43.4071 102.689 43.8785 102.015 44.2502L102.3 44.7651C103.058 44.3468 103.625 43.7978 103.985 43.114L103.465 42.8401ZM102.014 44.2509C101.36 44.6158 100.485 44.8279 99.3696 44.868L99.3907 45.4557C100.563 45.4135 101.539 45.1895 102.301 44.7644L102.014 44.2509ZM99.1853 44.9417L98.1114 45.8922L98.5011 46.3325L99.575 45.382L99.1853 44.9417ZM98.1458 53.706H92.6775V54.294H98.1458V53.706ZM92.9405 54.1315L94.3847 51.2431L93.8587 50.9801L92.4145 53.8685L92.9405 54.1315ZM94.1217 51.4056H98.1458V50.8175H94.1217V51.4056ZM98.1458 51.4056C98.8239 51.4056 99.404 51.2987 99.8696 51.0659L99.6066 50.54C99.2493 50.7187 98.7679 50.8175 98.1458 50.8175V51.4056ZM99.8738 51.0638C100.33 50.8264 100.681 50.4993 100.91 50.0797L100.393 49.7981C100.227 50.1027 99.9688 50.3516 99.6025 50.5421L99.8738 51.0638ZM100.91 50.0797C101.134 49.6688 101.242 49.2036 101.242 48.6922H100.654C100.654 49.1189 100.564 49.4848 100.393 49.7981L100.91 50.0797ZM101.242 48.6922C101.242 48.1323 101.146 47.6312 100.943 47.1974L100.41 47.4467C100.569 47.7864 100.654 48.1988 100.654 48.6922H101.242ZM100.945 47.2021C100.744 46.7534 100.417 46.409 99.975 46.1737L99.6988 46.6929C100.03 46.869 100.263 47.1171 100.408 47.442L100.945 47.2021ZM99.9792 46.176C99.534 45.9297 98.9694 45.8183 98.3063 45.8183V46.4064C98.9104 46.4064 99.3662 46.5089 99.6945 46.6906L99.9792 46.176ZM98.3063 45.8183H94.7389V46.4064H98.3063V45.8183ZM95.0329 46.1152L95.0576 43.5724L94.4696 43.5667L94.4449 46.1095L95.0329 46.1152ZM94.7636 43.8636H99.2073V43.2755H94.7636V43.8636ZM98.9835 43.7602L99.8352 44.76L100.283 44.3787L99.4312 43.3789L98.9835 43.7602ZM100.063 44.8634C101.124 44.8474 101.945 45.0358 102.548 45.4011L102.853 44.898C102.124 44.4568 101.183 44.2584 100.055 44.2754L100.063 44.8634ZM102.552 45.4033C103.182 45.7721 103.628 46.2448 103.905 46.8198L104.435 46.5652C104.102 45.8729 103.569 45.3169 102.849 44.8958L102.552 45.4033ZM103.906 46.8226C104.198 47.4148 104.345 48.049 104.345 48.7292H104.933C104.933 47.9611 104.766 47.2375 104.433 46.5624L103.906 46.8226ZM104.345 48.7292C104.345 49.8384 104.103 50.7516 103.637 51.4847L104.134 51.8C104.672 50.9531 104.933 49.9242 104.933 48.7292H104.345ZM103.638 51.4835C103.173 52.2078 102.488 52.7599 101.565 53.1352L101.787 53.6798C102.807 53.2651 103.594 52.6404 104.133 51.8012L103.638 51.4835ZM101.564 53.1355C100.647 53.512 99.5104 53.706 98.1458 53.706V54.294C99.5626 54.294 100.78 54.093 101.788 53.6795L101.564 53.1355ZM114.723 39.1011L115.003 39.1927L115.012 39.1646L115.015 39.1351L114.723 39.1011ZM109.835 54V54.294H110.048L110.115 54.0917L109.835 54ZM105.898 54L105.622 53.8976L105.475 54.294H105.898V54ZM112.576 36.0275V35.7335H112.371L112.3 35.9251L112.576 36.0275ZM115.081 36.0275L115.373 36.0615L115.412 35.7335H115.081V36.0275ZM118.785 54L118.505 54.0919L118.572 54.294H118.785V54ZM113.884 39.1011L113.592 39.1386L113.596 39.1664L113.605 39.193L113.884 39.1011ZM113.489 36.0275V35.7335H113.155L113.197 36.065L113.489 36.0275ZM116.02 36.0275L116.295 35.9246L116.224 35.7335H116.02V36.0275ZM122.735 54V54.294H123.158L123.01 53.8971L122.735 54ZM118.562 47.3097H118.856V47.0157H118.562V47.3097ZM118.562 50.2105V50.5045H118.856V50.2105H118.562ZM109.07 50.2105H108.776V50.5045H109.07V50.2105ZM109.07 47.3097V47.0157H108.776V47.3097H109.07ZM114.444 39.0094L109.556 53.9083L110.115 54.0917L115.003 39.1927L114.444 39.0094ZM109.835 53.706H105.898V54.294H109.835V53.706ZM106.173 54.1024L112.851 36.1299L112.3 35.9251L105.622 53.8976L106.173 54.1024ZM112.576 36.3215H115.081V35.7335H112.576V36.3215ZM114.789 35.9935L114.431 39.0671L115.015 39.1351L115.373 36.0615L114.789 35.9935ZM119.064 53.9081L114.163 39.0092L113.605 39.193L118.505 54.0919L119.064 53.9081ZM114.176 39.0636L113.781 35.99L113.197 36.065L113.592 39.1386L114.176 39.0636ZM113.489 36.3215H116.02V35.7335H113.489V36.3215ZM115.744 36.1304L122.459 54.1029L123.01 53.8971L116.295 35.9246L115.744 36.1304ZM122.735 53.706H118.785V54.294H122.735V53.706ZM118.268 47.3097V50.2105H118.856V47.3097H118.268ZM118.562 49.9164H109.07V50.5045H118.562V49.9164ZM109.364 50.2105V47.3097H108.776V50.2105H109.364ZM109.07 47.6037H118.562V47.0157H109.07V47.6037ZM124.401 36.0275V35.7335H124.107V36.0275H124.401ZM134.646 36.6447L134.533 36.9161L134.534 36.9164L134.646 36.6447ZM137.251 43.9275L136.985 43.8011L136.985 43.8025L137.251 43.9275ZM135.881 45.6433L136.061 45.8757L136.061 45.8754L135.881 45.6433ZM133.819 46.7295L133.724 46.4515L133.702 46.4588L133.682 46.4693L133.819 46.7295ZM132.647 47.3467V47.6407H132.719L132.784 47.6069L132.647 47.3467ZM126.82 47.3467L126.526 47.3492L126.529 47.6407H126.82V47.3467ZM126.796 44.4583V44.1643H126.499L126.502 44.4608L126.796 44.4583ZM133.708 43.1498L133.449 43.0101L133.447 43.0142L133.708 43.1498ZM128.104 38.9283V38.6343H127.81V38.9283H128.104ZM128.104 54V54.294H128.398V54H128.104ZM124.401 54H124.107V54.294H124.401V54ZM134.449 54L134.187 54.1339L134.269 54.294H134.449V54ZM130.351 45.9889L130.349 45.6949L129.872 45.6979L130.089 46.1228L130.351 45.9889ZM134.264 45.9642L134.524 45.827L134.44 45.6691L134.262 45.6702L134.264 45.9642ZM138.411 53.8272H138.705V53.7544L138.671 53.69L138.411 53.8272ZM138.411 54V54.294H138.705V54H138.411ZM124.401 36.3215H131.104V35.7335H124.401V36.3215ZM131.104 36.3215C132.45 36.3215 133.59 36.5232 134.533 36.9161L134.759 36.3733C133.727 35.9433 132.506 35.7335 131.104 35.7335V36.3215ZM134.534 36.9164C135.482 37.3081 136.198 37.8819 136.697 38.6341L137.187 38.309C136.616 37.4483 135.802 36.8041 134.759 36.373L134.534 36.9164ZM136.697 38.6341C137.194 39.3828 137.451 40.3148 137.451 41.4464H138.039C138.039 40.2244 137.76 39.1732 137.187 38.309L136.697 38.6341ZM137.451 41.4464C137.451 42.3764 137.291 43.1581 136.985 43.8011L137.516 44.0539C137.868 43.3144 138.039 42.442 138.039 41.4464H137.451ZM136.985 43.8025C136.683 44.4438 136.256 44.979 135.7 45.4112L136.061 45.8754C136.69 45.3859 137.176 44.7773 137.517 44.0525L136.985 43.8025ZM135.701 45.4108C135.145 45.8413 134.487 46.189 133.724 46.4515L133.915 47.0076C134.731 46.7269 135.448 46.3504 136.061 45.8757L135.701 45.4108ZM133.682 46.4693L132.51 47.0865L132.784 47.6069L133.956 46.9897L133.682 46.4693ZM132.647 47.0527H126.82V47.6407H132.647V47.0527ZM127.114 47.3442L127.09 44.4558L126.502 44.4608L126.526 47.3492L127.114 47.3442ZM126.796 44.7523H131.128V44.1643H126.796V44.7523ZM131.128 44.7523C131.811 44.7523 132.402 44.6315 132.885 44.3715L132.606 43.8538C132.233 44.0547 131.746 44.1643 131.128 44.1643V44.7523ZM132.885 44.3715C133.362 44.1146 133.726 43.7519 133.969 43.2855L133.447 43.0142C133.262 43.3707 132.985 43.6499 132.606 43.8538L132.885 44.3715ZM133.967 43.2895C134.216 42.8287 134.335 42.3019 134.335 41.718H133.747C133.747 42.2202 133.645 42.6481 133.449 43.0101L133.967 43.2895ZM134.335 41.718C134.335 41.1057 134.222 40.5601 133.982 40.0908L133.459 40.3579C133.647 40.728 133.747 41.1782 133.747 41.718H134.335ZM133.982 40.0908C133.739 39.6136 133.368 39.2488 132.879 38.9996L132.612 39.5235C132.995 39.7187 133.274 39.9958 133.459 40.3579L133.982 40.0908ZM132.879 38.9996C132.39 38.7503 131.793 38.6343 131.104 38.6343V39.2223C131.731 39.2223 132.229 39.3284 132.612 39.5235L132.879 38.9996ZM131.104 38.6343H128.104V39.2223H131.104V38.6343ZM127.81 38.9283V54H128.398V38.9283H127.81ZM128.104 53.706H124.401V54.294H128.104V53.706ZM124.695 54V36.0275H124.107V54H124.695ZM134.711 53.8661L130.612 45.855L130.089 46.1228L134.187 54.1339L134.711 53.8661ZM130.352 46.2829L134.265 46.2582L134.262 45.6702L130.349 45.6949L130.352 46.2829ZM134.004 46.1014L138.151 53.9644L138.671 53.69L134.524 45.827L134.004 46.1014ZM138.117 53.8272V54H138.705V53.8272H138.117ZM138.411 53.706H134.449V54.294H138.411V53.706ZM147.903 39.1011L148.183 39.1927L148.192 39.1646L148.195 39.1351L147.903 39.1011ZM143.015 54V54.294H143.228L143.295 54.0917L143.015 54ZM139.078 54L138.802 53.8976L138.655 54.294H139.078V54ZM145.756 36.0275V35.7335H145.551L145.48 35.9251L145.756 36.0275ZM148.261 36.0275L148.553 36.0615L148.592 35.7335H148.261V36.0275ZM151.965 54L151.685 54.0919L151.752 54.294H151.965V54ZM147.064 39.1011L146.772 39.1386L146.776 39.1664L146.785 39.193L147.064 39.1011ZM146.669 36.0275V35.7335H146.335L146.377 36.065L146.669 36.0275ZM149.2 36.0275L149.475 35.9246L149.404 35.7335H149.2V36.0275ZM155.915 54V54.294H156.338L156.19 53.8971L155.915 54ZM151.742 47.3097H152.036V47.0157H151.742V47.3097ZM151.742 50.2105V50.5045H152.036V50.2105H151.742ZM142.25 50.2105H141.956V50.5045H142.25V50.2105ZM142.25 47.3097V47.0157H141.956V47.3097H142.25ZM147.624 39.0094L142.736 53.9083L143.295 54.0917L148.183 39.1927L147.624 39.0094ZM143.015 53.706H139.078V54.294H143.015V53.706ZM139.353 54.1024L146.031 36.1299L145.48 35.9251L138.802 53.8976L139.353 54.1024ZM145.756 36.3215H148.261V35.7335H145.756V36.3215ZM147.969 35.9935L147.611 39.0671L148.195 39.1351L148.553 36.0615L147.969 35.9935ZM152.244 53.9081L147.343 39.0092L146.785 39.193L151.685 54.0919L152.244 53.9081ZM147.356 39.0636L146.961 35.99L146.377 36.065L146.772 39.1386L147.356 39.0636ZM146.669 36.3215H149.2V35.7335H146.669V36.3215ZM148.924 36.1304L155.639 54.1029L156.19 53.8971L149.475 35.9246L148.924 36.1304ZM155.915 53.706H151.965V54.294H155.915V53.706ZM151.448 47.3097V50.2105H152.036V47.3097H151.448ZM151.742 49.9164H142.25V50.5045H151.742V49.9164ZM142.544 50.2105V47.3097H141.956V50.2105H142.544ZM142.25 47.6037H151.742V47.0157H142.25V47.6037Z" fill="black" fill-opacity="0.25"/>
</g>
<path d="M43.7491 11.0041V24H42.6513V11.0041H43.7491ZM49.8008 16.9843V17.9305H43.3832V16.9843H49.8008ZM50.7023 11.0041V11.9502H43.3832V11.0041H50.7023ZM54.2726 11.0041V24H53.1748V11.0041H54.2726ZM67.4828 11.0041V24H66.376L58.9051 12.8963V24H57.8072V11.0041H58.9051L66.3938 22.1077V11.0041H67.4828ZM75.2304 11.7806L70.7318 24H69.5893L74.4985 11.0041H75.2929L75.2304 11.7806ZM79.3184 24L74.8109 11.7806L74.7484 11.0041H75.5428L80.4609 24H79.3184ZM78.5151 19.4121V20.3583H71.6154V19.4121H78.5151ZM92.0644 11.0041V24H90.9576L83.4867 12.8963V24H82.3888V11.0041H83.4867L90.9755 22.1077V11.0041H92.0644ZM103.48 19.9477H104.578C104.489 20.8224 104.248 21.5781 103.855 22.2148C103.463 22.8456 102.927 23.3306 102.249 23.6697C101.57 24.0089 100.752 24.1785 99.7941 24.1785C99.0563 24.1785 98.3868 24.0387 97.7858 23.759C97.1908 23.4793 96.679 23.0836 96.2506 22.5719C95.8221 22.0542 95.4919 21.4353 95.2598 20.7153C95.0278 19.9953 94.9117 19.195 94.9117 18.3143V16.6898C94.9117 15.8091 95.0278 15.0117 95.2598 14.2977C95.4919 13.5777 95.8251 12.9588 96.2595 12.4411C96.6939 11.9234 97.2146 11.5247 97.8215 11.2451C98.4285 10.9654 99.1128 10.8255 99.8745 10.8255C100.797 10.8255 101.594 10.9951 102.267 11.3343C102.939 11.6675 103.469 12.1495 103.855 12.7803C104.248 13.411 104.489 14.1727 104.578 15.0653H103.48C103.397 14.3631 103.213 13.7681 102.927 13.2801C102.641 12.7922 102.246 12.4203 101.74 12.1644C101.24 11.9026 100.618 11.7717 99.8745 11.7717C99.2675 11.7717 98.726 11.8877 98.25 12.1198C97.7739 12.3519 97.3693 12.6851 97.0361 13.1195C96.7028 13.5479 96.447 14.0626 96.2684 14.6636C96.0959 15.2646 96.0096 15.9341 96.0096 16.6719V18.3143C96.0096 19.0283 96.0929 19.6859 96.2595 20.2869C96.4261 20.8879 96.6701 21.4085 96.9914 21.8489C97.3187 22.2892 97.7174 22.6314 98.1875 22.8754C98.6576 23.1193 99.1931 23.2413 99.7941 23.2413C100.562 23.2413 101.201 23.1193 101.713 22.8754C102.231 22.6254 102.633 22.2565 102.918 21.7686C103.204 21.2806 103.391 20.6737 103.48 19.9477ZM99.4103 24.0893H100.24L100.133 24.6694C100.508 24.717 100.847 24.8509 101.151 25.0711C101.454 25.2913 101.606 25.6661 101.606 26.1957C101.606 26.4635 101.547 26.7045 101.428 26.9187C101.314 27.1389 101.145 27.3263 100.919 27.4811C100.699 27.6417 100.425 27.7637 100.098 27.847C99.7763 27.9303 99.4044 27.972 98.9819 27.972L98.9194 27.2758C99.2169 27.2758 99.5025 27.2401 99.7763 27.1687C100.056 27.0972 100.282 26.9812 100.455 26.8205C100.633 26.6599 100.722 26.4546 100.722 26.2047C100.722 25.9785 100.666 25.8 100.553 25.6691C100.44 25.5382 100.267 25.44 100.035 25.3746C99.803 25.3091 99.5115 25.2615 99.1604 25.2318L99.4103 24.0893ZM111.523 11.7806L107.024 24H105.882L110.791 11.0041H111.585L111.523 11.7806ZM115.611 24L111.103 11.7806L111.041 11.0041H111.835L116.753 24H115.611ZM114.807 19.4121V20.3583H107.908V19.4121H114.807ZM126.036 20.8046C126.036 20.4475 125.976 20.1292 125.857 19.8495C125.738 19.5698 125.542 19.3199 125.268 19.0997C125.001 18.8736 124.638 18.6654 124.179 18.4749C123.727 18.2786 123.162 18.0852 122.483 17.8948C121.835 17.7103 121.249 17.508 120.725 17.2878C120.201 17.0676 119.752 16.8147 119.377 16.5291C119.008 16.2435 118.726 15.9103 118.529 15.5294C118.333 15.1426 118.235 14.6934 118.235 14.1816C118.235 13.6818 118.342 13.2266 118.556 12.816C118.77 12.4054 119.071 12.0514 119.458 11.7538C119.85 11.4563 120.312 11.2272 120.841 11.0665C121.377 10.9059 121.963 10.8255 122.599 10.8255C123.51 10.8255 124.295 10.9981 124.956 11.3432C125.622 11.6884 126.137 12.1555 126.5 12.7446C126.869 13.3277 127.053 13.9823 127.053 14.7083H125.956C125.956 14.143 125.822 13.6401 125.554 13.1998C125.292 12.7535 124.911 12.4054 124.411 12.1555C123.918 11.8996 123.314 11.7717 122.599 11.7717C121.885 11.7717 121.284 11.8818 120.796 12.1019C120.314 12.3162 119.949 12.6048 119.699 12.9677C119.455 13.3248 119.333 13.7235 119.333 14.1638C119.333 14.4732 119.392 14.7588 119.511 15.0207C119.63 15.2765 119.824 15.5175 120.091 15.7437C120.365 15.9638 120.725 16.1721 121.171 16.3685C121.618 16.5589 122.168 16.7404 122.823 16.9129C123.513 17.1033 124.126 17.3146 124.661 17.5467C125.197 17.7787 125.649 18.0465 126.018 18.35C126.387 18.6475 126.667 18.9956 126.857 19.3943C127.048 19.793 127.143 20.2571 127.143 20.7867C127.143 21.3163 127.03 21.7924 126.804 22.2148C126.583 22.6314 126.271 22.9854 125.866 23.277C125.468 23.5686 124.995 23.7917 124.447 23.9464C123.906 24.1012 123.314 24.1785 122.671 24.1785C122.094 24.1785 121.519 24.1041 120.948 23.9554C120.377 23.8066 119.853 23.5775 119.377 23.2681C118.907 22.9527 118.529 22.5481 118.244 22.0542C117.964 21.5603 117.824 20.9712 117.824 20.2869H118.913C118.913 20.8343 119.023 21.2955 119.243 21.6704C119.464 22.0453 119.755 22.3487 120.118 22.5808C120.487 22.8129 120.892 22.9825 121.332 23.0896C121.778 23.1907 122.225 23.2413 122.671 23.2413C123.355 23.2413 123.947 23.1401 124.447 22.9378C124.953 22.7355 125.343 22.4529 125.616 22.0899C125.896 21.721 126.036 21.2925 126.036 20.8046Z" fill="white"/>
</g>
<defs>
<filter id="filter0_d_8_23" x="0" y="0" width="160" height="68" filterUnits="userSpaceOnUse" color-interpolation-filters="sRGB">
<feFlood flood-opacity="0" result="BackgroundImageFix"/>
<feColorMatrix in="SourceAlpha" type="matrix" values="0 0 0 0 0 0 0 0 0 0 0 0 0 0 0 0 0 0 127 0" result="hardAlpha"/>
<feOffset dy="4"/>
<feGaussianBlur stdDeviation="2"/>
<feComposite in2="hardAlpha" operator="out"/>
<feColorMatrix type="matrix" values="0 0 0 0 0 0 0 0 0 0 0 0 0 0 0 0 0 0 0.25 0"/>
<feBlend mode="normal" in2="BackgroundImageFix" result="effect1_dropShadow_8_23"/>
<feBlend mode="normal" in="SourceGraphic" in2="effect1_dropShadow_8_23" result="shape"/>
</filter>
<filter id="filter1_d_8_23" x="2.91035" y="6.0275" width="154.18" height="50.5716" filterUnits="userSpaceOnUse" color-interpolation-filters="sRGB">
<feFlood flood-opacity="0" result="BackgroundImageFix"/>
<feColorMatrix in="SourceAlpha" type="matrix" values="0 0 0 0 0 0 0 0 0 0 0 0 0 0 0 0 0 0 127 0" result="hardAlpha"/>
<feOffset dy="1.17608"/>
<feGaussianBlur stdDeviation="0.58804"/>
<feComposite in2="hardAlpha" operator="out"/>
<feColorMatrix type="matrix" values="0 0 0 0 0 0 0 0 0 0 0 0 0 0 0 0 0 0 0.25 0"/>
<feBlend mode="normal" in2="BackgroundImageFix" result="effect1_dropShadow_8_23"/>
<feBlend mode="normal" in="SourceGraphic" in2="effect1_dropShadow_8_23" result="shape"/>
</filter>
</defs>
</svg>
