<svg width="22" height="22" viewBox="0 0 22 22" fill="none" xmlns="http://www.w3.org/2000/svg">
<path d="M0.626465 15.6875H13.436C13.5183 15.6876 13.5998 15.6714 13.6758 15.6399C13.7519 15.6085 13.821 15.5623 13.8792 15.5042C13.9373 15.446 13.9835 15.3769 14.0149 15.3008C14.0464 15.2248 14.0626 15.1433 14.0625 15.061V13.189C14.0626 13.1067 14.0464 13.0252 14.0149 12.9492C13.9835 12.8731 13.9373 12.804 13.8792 12.7458C13.821 12.6877 13.7519 12.6415 13.6758 12.6101C13.5998 12.5786 13.5183 12.5624 13.436 12.5625H0.626465C0.544178 12.5624 0.462687 12.5786 0.386651 12.6101C0.310616 12.6415 0.24153 12.6877 0.183344 12.7458C0.125159 12.804 0.0790163 12.8731 0.0475562 12.9492C0.0160961 13.0252 -6.40206e-05 13.1067 1.90603e-07 13.189V15.061C-6.40206e-05 15.1433 0.0160961 15.2248 0.0475562 15.3008C0.0790163 15.3769 0.125159 15.446 0.183344 15.5042C0.24153 15.5623 0.310616 15.6085 0.386651 15.6399C0.462687 15.6714 0.544178 15.6876 0.626465 15.6875ZM0.626465 3.1875H13.436C13.5183 3.18756 13.5998 3.1714 13.6758 3.13994C13.7519 3.10848 13.821 3.06234 13.8792 3.00416C13.9373 2.94597 13.9835 2.87688 14.0149 2.80085C14.0464 2.72481 14.0626 2.64332 14.0625 2.56104V0.688965C14.0626 0.606679 14.0464 0.525187 14.0149 0.449151C13.9835 0.373116 13.9373 0.30403 13.8792 0.245844C13.821 0.187659 13.7519 0.141516 13.6758 0.110056C13.5998 0.0785961 13.5183 0.062436 13.436 0.0625002H0.626465C0.544178 0.062436 0.462687 0.0785961 0.386651 0.110056C0.310616 0.141516 0.24153 0.187659 0.183344 0.245844C0.125159 0.30403 0.0790163 0.373116 0.0475562 0.449151C0.0160961 0.525187 -6.40206e-05 0.606679 1.90603e-07 0.688965V2.56104C-6.40206e-05 2.64332 0.0160961 2.72481 0.0475562 2.80085C0.0790163 2.87688 0.125159 2.94597 0.183344 3.00416C0.24153 3.06234 0.310616 3.10848 0.386651 3.13994C0.462687 3.1714 0.544178 3.18756 0.626465 3.1875ZM21.0938 6.3125H0.78125C0.57405 6.3125 0.375336 6.39481 0.228823 6.54132C0.0823102 6.68784 1.90603e-07 6.88655 1.90603e-07 7.09375V8.65625C1.90603e-07 8.86345 0.0823102 9.06216 0.228823 9.20868C0.375336 9.35519 0.57405 9.4375 0.78125 9.4375H21.0938C21.301 9.4375 21.4997 9.35519 21.6462 9.20868C21.7927 9.06216 21.875 8.86345 21.875 8.65625V7.09375C21.875 6.88655 21.7927 6.68784 21.6462 6.54132C21.4997 6.39481 21.301 6.3125 21.0938 6.3125ZM21.0938 18.8125H0.78125C0.57405 18.8125 0.375336 18.8948 0.228823 19.0413C0.0823102 19.1878 1.90603e-07 19.3865 1.90603e-07 19.5938V21.1562C1.90603e-07 21.3635 0.0823102 21.5622 0.228823 21.7087C0.375336 21.8552 0.57405 21.9375 0.78125 21.9375H21.0938C21.301 21.9375 21.4997 21.8552 21.6462 21.7087C21.7927 21.5622 21.875 21.3635 21.875 21.1562V19.5938C21.875 19.3865 21.7927 19.1878 21.6462 19.0413C21.4997 18.8948 21.301 18.8125 21.0938 18.8125Z" fill="white"/>
</svg>
